<svg height='100px' width='100px'  fill="#3BB300" xmlns="http://www.w3.org/2000/svg" xmlns:sodipodi="http://sodipodi.sourceforge.net/DTD/sodipodi-0.dtd" viewBox="0 0 100 100" x="0px" y="0px"><path d="m 19.400883,91.954649 c -0.77958,-2.175664 5.441554,-2.943834 4.755353,-5.148558 C 22.826521,82.533789 13.93731,86.616151 10.766921,83.370697 9.3963852,81.967709 8.2819965,79.175935 9.5674976,77.702812 13.724438,72.939145 26.992305,84.248437 28.918405,78.300578 30.095747,74.664918 22.684434,74.95818 18.990237,72.06741 15.998171,69.726075 14.489519,65.654952 14.108269,61.95523 13.734485,58.328005 13.021258,51.66066 16.778326,51.33286 c 6.276132,-0.547584 2.835271,12.831156 7.722133,16.681629 2.280404,1.796785 5.947078,3.033584 8.61624,1.843864 2.853144,-1.271725 6.077265,-6.936288 6.457226,-9.950529 0.426906,-3.38665 0.953242,-9.698442 -2.570711,-9.933754 -4.555855,-0.304215 -0.554715,12.805975 -5.089252,12.280849 -5.234667,-0.606204 -6.795776,-9.028384 -2.276272,-15.120971 3.402957,-4.587407 7.979734,-4.487247 8.530114,-8.367395 0.221164,-1.559193 -0.796785,-3.704003 -2.364152,-4.135812 -6.332595,-1.744628 -11.08762,11.680147 -17.210351,9.33685 -2.129117,-0.814858 -2.845596,-4.249716 -2.068163,-6.328804 2.028094,-5.423739 16.821774,-3.833182 15.064656,-9.348915 -1.950113,-6.121572 -16.170073,5.777296 -19.876539,0.465038 -1.445911,-2.072334 1.062741,-5.318848 3.086768,-6.870572 3.659861,-2.805838 10.940542,1.142567 13.794503,-2.431232 1.434258,-1.796006 1.348057,-5.42959 -0.534204,-6.790165 -2.765417,-1.998959 -7.492827,4.252041 -10.124137,2.090638 -1.851015,-1.520458 -1.078096,-5.137078 0.355713,-7.0285517 1.595441,-2.1046962 4.895214,-2.6736638 7.596615,-2.7226919 2.857435,-0.051835 6.073666,0.6851507 8.148625,2.5862929 3.939098,3.6091217 0.468738,14.6875317 5.894289,14.6641857 4.832682,-0.0208 2.787447,-9.007574 5.096263,-13.1063028 1.453846,-2.5809445 4.607454,-4.2857355 6.514457,-2.890608 3.59491,2.629966 0.39773,8.7215548 -2.09422,12.9011578 -2.048011,3.435005 -6.711496,7.605984 -4.622919,11.023042 1.405848,2.300066 5.85667,2.318892 8.232155,0.957605 8.043586,-4.609428 1.104629,-26.217919 10.401001,-25.1766788 2.805389,0.3142185 3.573771,3.9715506 2.34731,8.0944058 -0.659044,2.215432 -1.666542,6.904969 0.680218,7.328719 5.163334,0.932337 3.410456,-8.02872 8.001378,-11.5121837 4.167429,-3.162129 12.593226,-3.4229672 14.998114,-0.1406032 2.529458,3.4523829 1.139541,6.4882329 1.085636,9.3156059 -0.06995,3.669988 0.879594,7.917635 -2.524743,9.543909 -1.688885,0.806794 -4.129845,-0.653288 -5.106221,-2.212155 -2.00163,-3.195773 3.938168,-7.783016 1.04853,-10.265185 -7.73661,-4.140257 -9.165755,6.905872 -7.644446,10.291722 1.292119,2.733099 1.403629,5.148291 -1.65044,5.674091 -5.770472,0.993465 -4.524478,-7.890251 -11.159665,-3.782156 -3.08092,1.907513 -1.914219,5.628295 -6.823176,8.506553 -2.743539,1.608611 -6.854221,2.332176 -9.339771,4.293188 -1.84654,1.456854 -5.018247,4.050914 -3.651762,5.941531 2.978063,4.120339 10.411805,-4.376081 15.331819,-2.7473 2.132973,0.706124 5.064534,2.773872 4.499683,4.881101 -1.435355,5.354722 -15.740428,-0.05848 -16.221133,5.45443 -0.236018,2.706749 4.659686,3.279359 7.386783,3.945357 2.997314,0.731989 6.645751,1.482477 9.271526,-0.08933 4.025422,-2.409648 7.043762,-7.689103 6.447093,-12.230719 -0.420744,-3.202575 -7.04143,-4.063675 -6.634033,-7.266877 0.21282,-1.673314 2.572972,-2.728694 4.312578,-2.863798 2.872805,-0.22311 4.953986,3.834493 7.822838,3.568654 3.594564,-0.333088 5.119498,-6.279726 8.729869,-6.188608 2.13,0.05373 4.878601,1.849032 4.955584,3.906119 0.09282,2.480571 -5.340758,2.63288 -5.608605,5.101121 -0.365972,3.372415 6.710353,5.04939 5.998584,8.369434 -0.317879,1.482743 -2.431921,2.265669 -3.993812,2.395152 -2.368468,0.196349 -2.975292,-2.801382 -6.616045,-2.581479 -3.049689,0.1842 -1.341994,2.693127 -5.244359,7.257988 -2.42173,2.832862 -7.60022,5.921177 -6.113337,9.306951 1.11727,2.544127 5.689022,2.54781 8.402467,1.679595 3.905112,-1.249511 4.151459,-8.183063 8.196572,-8.909103 1.518918,-0.272626 3.570633,0.657979 4.122594,2.052955 1.099093,2.777752 -3.441526,5.355903 -3.297457,8.325361 0.14397,2.967418 4.701334,5.08431 4.086686,7.994135 -0.317357,1.502411 -2.028353,3.070138 -3.614055,2.992631 -3.03012,-0.148114 -3.292975,-5.896732 -6.288643,-6.363574 -1.385229,-0.215873 -3.218279,0.643057 -3.712369,1.910882 -1.080369,2.772199 0.410843,6.516149 3.245581,8.322667 2.505721,1.596843 8.148414,1.395171 7.841115,4.277849 -0.293917,2.757152 -4.234876,2.704685 -8.203518,2.510855 -2.162498,-0.105622 -5.092137,-0.988072 -7.157728,-4.352807 -3.203957,-5.219072 -1.11016,-11.691532 -5.740379,-11.529397 -2.104083,0.07368 -2.972198,3.144411 -2.675449,5.207748 0.702157,4.882175 3.70981,9.729437 -4.803993,12.731367 -2.038995,0.71894 -6.113952,-0.135732 -6.524679,-2.395101 -0.448789,-2.468736 3.800709,-2.883961 4.562479,-5.389694 1.419292,-4.668553 -7.805525,-0.125878 -9.594709,-8.81552 -0.313639,-1.523273 0.272119,-4.991015 2.198151,-5.529459 2.993271,-0.836803 4.646032,6.21403 7.326133,4.65193 3.686817,-2.148866 1.615862,-8.854469 -1.650075,-11.678733 -2.135724,-1.846895 -6.28259,-1.889867 -8.591498,-0.208619 -4.551019,3.313943 -6.501538,9.237113 -5.345955,13.822327 1.124984,4.463797 7.833319,10.854753 4.192184,14.239083 -1.175218,1.092331 -3.489281,-0.444977 -4.550078,-1.624307 -3.560607,-3.958474 -3.630492,-6.867803 -6.750895,-6.41867 -3.422259,0.492583 -2.74013,5.695467 -4.86685,8.805009 -1.835342,2.68351 -8.410025,1.287886 -9.448908,-1.611429 z"></path></svg>